<svg xmlns="http://www.w3.org/2000/svg" viewBox="0 0 64 64" fill="none" role="img" aria-label="Mohith G monogram">
  <defs>
    <linearGradient id="mg-bg" x1="0" y1="0" x2="64" y2="64" gradientUnits="userSpaceOnUse">
      <stop offset="0" stop-color="#1A1A24"/>
      <stop offset="1" stop-color="#0A0A0F"/>
    </linearGradient>
    <linearGradient id="mg-edge" x1="0" y1="32" x2="64" y2="32" gradientUnits="userSpaceOnUse">
      <stop offset="0" stop-color="#7C5CFF" stop-opacity="0"/>
      <stop offset="0.5" stop-color="#7C5CFF"/>
      <stop offset="1" stop-color="#00E5A0"/>
    </linearGradient>
  </defs>
  <rect x="2" y="2" width="60" height="60" rx="14" fill="url(#mg-bg)" stroke="url(#mg-edge)" stroke-opacity="0.5" stroke-width="1"/>
  <!-- "m" -->
  <path d="M14 44 L14 26 Q14 22 18 22 Q22 22 22 26 L22 44 M22 28 Q22 22 26 22 Q30 22 30 28 L30 44" stroke="#F5F5F0" stroke-width="3" stroke-linecap="round" stroke-linejoin="round" fill="none"/>
  <!-- "g" -->
  <path d="M50 22 L50 46 Q50 52 44 52 Q38 52 38 47 M50 28 Q50 22 44 22 Q36 22 36 32 Q36 42 44 42 Q50 42 50 36 L50 28" stroke="#F5F5F0" stroke-width="3" stroke-linecap="round" stroke-linejoin="round" fill="none"/>
  <!-- DAG dots: input + output -->
  <circle cx="6" cy="32" r="1.5" fill="#7C5CFF"/>
  <circle cx="58" cy="32" r="1.5" fill="#00E5A0"/>
</svg>
